<svg width="290" height="76" viewBox="0 0 290 76" fill="none" xmlns="http://www.w3.org/2000/svg">
<rect x="1.25" y="1.25" width="37.5" height="37.5" rx="8.75" fill="#18181B" stroke="#27272A" stroke-width="2.5"/>
<rect x="51.25" y="1.25" width="37.5" height="37.5" rx="8.75" fill="#4C1D95" stroke="#6D28D9" stroke-width="2.5"/>
<rect x="101.25" y="1.25" width="37.5" height="37.5" rx="8.75" fill="#5B21B6" stroke="#7C3AED" stroke-width="2.5"/>
<rect x="151.25" y="1.25" width="37.5" height="37.5" rx="8.75" fill="#6D28D9" stroke="#8B5CF6" stroke-width="2.5"/>
<rect x="201.25" y="1.25" width="37.5" height="37.5" rx="8.75" fill="#7C3AED" stroke="#A78BFA" stroke-width="2.5"/>
<rect x="251.25" y="1.25" width="37.5" height="37.5" rx="8.75" fill="#8B5CF6" stroke="#C4B5FD" stroke-width="2.5"/>
<path d="M74.5455 66.1818C74.5455 67.4356 74.3106 68.5095 73.8409 69.4034C73.375 70.2936 72.7386 70.9754 71.9318 71.4489C71.1288 71.9223 70.2178 72.1591 69.1989 72.1591C68.1799 72.1591 67.267 71.9223 66.4602 71.4489C65.6572 70.9716 65.0208 70.2879 64.5511 69.3977C64.0852 68.5038 63.8523 67.4318 63.8523 66.1818C63.8523 64.928 64.0852 63.8561 64.5511 62.9659C65.0208 62.072 65.6572 61.3883 66.4602 60.9148C67.267 60.4413 68.1799 60.2045 69.1989 60.2045C70.2178 60.2045 71.1288 60.4413 71.9318 60.9148C72.7386 61.3883 73.375 62.072 73.8409 62.9659C74.3106 63.8561 74.5455 64.928 74.5455 66.1818ZM72.4261 66.1818C72.4261 65.2992 72.2879 64.5549 72.0114 63.9489C71.7386 63.339 71.3598 62.8788 70.875 62.5682C70.3902 62.2538 69.8314 62.0966 69.1989 62.0966C68.5663 62.0966 68.0076 62.2538 67.5227 62.5682C67.0379 62.8788 66.6572 63.339 66.3807 63.9489C66.108 64.5549 65.9716 65.2992 65.9716 66.1818C65.9716 67.0644 66.108 67.8106 66.3807 68.4205C66.6572 69.0265 67.0379 69.4867 67.5227 69.8011C68.0076 70.1117 68.5663 70.267 69.1989 70.267C69.8314 70.267 70.3902 70.1117 70.875 69.8011C71.3598 69.4867 71.7386 69.0265 72.0114 68.4205C72.2879 67.8106 72.4261 67.0644 72.4261 66.1818ZM78.5043 66.8864V72H76.4474V63.2727H78.4134V64.7557H78.5156C78.7164 64.267 79.0365 63.8788 79.4759 63.5909C79.919 63.303 80.4664 63.1591 81.1179 63.1591C81.7202 63.1591 82.2448 63.2879 82.6918 63.5455C83.1425 63.803 83.491 64.1761 83.7372 64.6648C83.9872 65.1534 84.1103 65.7462 84.1065 66.4432V72H82.0497V66.7614C82.0497 66.178 81.8982 65.7216 81.5952 65.392C81.2959 65.0625 80.8812 64.8977 80.3509 64.8977C79.991 64.8977 79.6709 64.9773 79.3906 65.1364C79.1141 65.2917 78.8963 65.517 78.7372 65.8125C78.5819 66.108 78.5043 66.4659 78.5043 66.8864ZM90.0611 72.1705C89.1861 72.1705 88.4304 71.9886 87.794 71.625C87.1615 71.2576 86.6747 70.7386 86.3338 70.0682C85.9929 69.3939 85.8224 68.6004 85.8224 67.6875C85.8224 66.7898 85.9929 66.0019 86.3338 65.3239C86.6785 64.642 87.1596 64.1117 87.777 63.733C88.3944 63.3504 89.1198 63.1591 89.9531 63.1591C90.491 63.1591 90.9986 63.2462 91.4759 63.4205C91.9569 63.5909 92.3812 63.8561 92.7486 64.2159C93.1198 64.5758 93.4115 65.0341 93.6236 65.5909C93.8357 66.1439 93.9418 66.803 93.9418 67.5682V68.1989H86.7884V66.8125H91.9702C91.9664 66.4186 91.8812 66.0682 91.7145 65.7614C91.5478 65.4508 91.3149 65.2064 91.0156 65.0284C90.7202 64.8504 90.3755 64.7614 89.9815 64.7614C89.5611 64.7614 89.1918 64.8636 88.8736 65.0682C88.5554 65.2689 88.3073 65.5341 88.1293 65.8636C87.955 66.1894 87.866 66.5473 87.8622 66.9375V68.1477C87.8622 68.6553 87.955 69.0909 88.1406 69.4545C88.3262 69.8144 88.5857 70.0909 88.919 70.2841C89.2524 70.4735 89.6425 70.5682 90.0895 70.5682C90.3887 70.5682 90.6596 70.5265 90.902 70.4432C91.1444 70.3561 91.3546 70.2292 91.5327 70.0625C91.7107 69.8958 91.8452 69.6894 91.9361 69.4432L93.8565 69.6591C93.7353 70.1667 93.5043 70.6098 93.1634 70.9886C92.8262 71.3636 92.3944 71.6553 91.8679 71.8636C91.3414 72.0682 90.7391 72.1705 90.0611 72.1705ZM106.548 65.5795L104.673 65.7841C104.62 65.5947 104.527 65.4167 104.395 65.25C104.266 65.0833 104.092 64.9489 103.872 64.8466C103.652 64.7443 103.384 64.6932 103.065 64.6932C102.637 64.6932 102.277 64.786 101.986 64.9716C101.698 65.1572 101.556 65.3977 101.56 65.6932C101.556 65.947 101.649 66.1534 101.838 66.3125C102.031 66.4716 102.349 66.6023 102.793 66.7045L104.281 67.0227C105.107 67.2008 105.721 67.483 106.122 67.8693C106.527 68.2557 106.732 68.7614 106.736 69.3864C106.732 69.9356 106.571 70.4205 106.253 70.8409C105.938 71.2576 105.501 71.5833 104.94 71.8182C104.38 72.053 103.736 72.1705 103.009 72.1705C101.94 72.1705 101.08 71.947 100.429 71.5C99.7775 71.0492 99.3892 70.4223 99.2642 69.6193L101.27 69.4261C101.361 69.8201 101.554 70.1174 101.849 70.3182C102.145 70.5189 102.529 70.6193 103.003 70.6193C103.491 70.6193 103.884 70.5189 104.179 70.3182C104.478 70.1174 104.628 69.8693 104.628 69.5739C104.628 69.3239 104.531 69.1174 104.338 68.9545C104.149 68.7917 103.853 68.6667 103.452 68.5795L101.963 68.267C101.126 68.0928 100.507 67.7992 100.105 67.3864C99.7036 66.9697 99.5047 66.4432 99.5085 65.8068C99.5047 65.2689 99.6506 64.803 99.946 64.4091C100.245 64.0114 100.66 63.7045 101.19 63.4886C101.724 63.2689 102.34 63.1591 103.037 63.1591C104.06 63.1591 104.865 63.3769 105.452 63.8125C106.043 64.2481 106.408 64.8371 106.548 65.5795ZM112.79 63.2727V64.8636H107.773V63.2727H112.79ZM109.011 61.1818H111.068V69.375C111.068 69.6515 111.11 69.8636 111.193 70.0114C111.28 70.1553 111.394 70.2538 111.534 70.3068C111.674 70.3598 111.83 70.3864 112 70.3864C112.129 70.3864 112.246 70.3769 112.352 70.358C112.462 70.339 112.545 70.322 112.602 70.3068L112.949 71.9148C112.839 71.9527 112.682 71.9943 112.477 72.0398C112.277 72.0852 112.03 72.1117 111.739 72.1193C111.223 72.1345 110.759 72.0568 110.347 71.8864C109.934 71.7121 109.606 71.4432 109.364 71.0795C109.125 70.7159 109.008 70.2614 109.011 69.7159V61.1818ZM118.28 72.1705C117.405 72.1705 116.649 71.9886 116.013 71.625C115.38 71.2576 114.893 70.7386 114.553 70.0682C114.212 69.3939 114.041 68.6004 114.041 67.6875C114.041 66.7898 114.212 66.0019 114.553 65.3239C114.897 64.642 115.378 64.1117 115.996 63.733C116.613 63.3504 117.339 63.1591 118.172 63.1591C118.71 63.1591 119.217 63.2462 119.695 63.4205C120.176 63.5909 120.6 63.8561 120.967 64.2159C121.339 64.5758 121.63 65.0341 121.842 65.5909C122.054 66.1439 122.161 66.803 122.161 67.5682V68.1989H115.007V66.8125H120.189C120.185 66.4186 120.1 66.0682 119.933 65.7614C119.767 65.4508 119.534 65.2064 119.234 65.0284C118.939 64.8504 118.594 64.7614 118.2 64.7614C117.78 64.7614 117.411 64.8636 117.092 65.0682C116.774 65.2689 116.526 65.5341 116.348 65.8636C116.174 66.1894 116.085 66.5473 116.081 66.9375V68.1477C116.081 68.6553 116.174 69.0909 116.359 69.4545C116.545 69.8144 116.804 70.0909 117.138 70.2841C117.471 70.4735 117.861 70.5682 118.308 70.5682C118.607 70.5682 118.878 70.5265 119.121 70.4432C119.363 70.3561 119.573 70.2292 119.751 70.0625C119.929 69.8958 120.064 69.6894 120.155 69.4432L122.075 69.6591C121.954 70.1667 121.723 70.6098 121.382 70.9886C121.045 71.3636 120.613 71.6553 120.087 71.8636C119.56 72.0682 118.958 72.1705 118.28 72.1705ZM123.901 75.2727V63.2727H125.923V64.7159H126.043C126.149 64.5038 126.298 64.2784 126.491 64.0398C126.685 63.7973 126.946 63.5909 127.276 63.4205C127.605 63.2462 128.026 63.1591 128.537 63.1591C129.211 63.1591 129.819 63.3314 130.361 63.6761C130.906 64.017 131.338 64.5227 131.656 65.1932C131.978 65.8598 132.139 66.678 132.139 67.6477C132.139 68.6061 131.982 69.4205 131.668 70.0909C131.353 70.7614 130.925 71.2727 130.384 71.625C129.842 71.9773 129.228 72.1534 128.543 72.1534C128.043 72.1534 127.628 72.0701 127.298 71.9034C126.969 71.7367 126.704 71.536 126.503 71.3011C126.306 71.0625 126.152 70.8371 126.043 70.625H125.957V75.2727H123.901ZM125.918 67.6364C125.918 68.2008 125.997 68.6951 126.156 69.1193C126.319 69.5436 126.552 69.875 126.855 70.1136C127.162 70.3485 127.533 70.4659 127.969 70.4659C128.423 70.4659 128.804 70.3447 129.111 70.1023C129.418 69.8561 129.649 69.5208 129.804 69.0966C129.963 68.6686 130.043 68.1818 130.043 67.6364C130.043 67.0947 129.965 66.6136 129.81 66.1932C129.654 65.7727 129.423 65.4432 129.116 65.2045C128.81 64.9659 128.427 64.8466 127.969 64.8466C127.529 64.8466 127.156 64.9621 126.849 65.1932C126.543 65.4242 126.31 65.7481 126.151 66.1648C125.995 66.5814 125.918 67.072 125.918 67.6364ZM141.733 72.1705C140.858 72.1705 140.102 71.9886 139.466 71.625C138.833 71.2576 138.347 70.7386 138.006 70.0682C137.665 69.3939 137.494 68.6004 137.494 67.6875C137.494 66.7898 137.665 66.0019 138.006 65.3239C138.35 64.642 138.831 64.1117 139.449 63.733C140.066 63.3504 140.792 63.1591 141.625 63.1591C142.163 63.1591 142.67 63.2462 143.148 63.4205C143.629 63.5909 144.053 63.8561 144.42 64.2159C144.792 64.5758 145.083 65.0341 145.295 65.5909C145.508 66.1439 145.614 66.803 145.614 67.5682V68.1989H138.46V66.8125H143.642C143.638 66.4186 143.553 66.0682 143.386 65.7614C143.22 65.4508 142.987 65.2064 142.688 65.0284C142.392 64.8504 142.047 64.7614 141.653 64.7614C141.233 64.7614 140.864 64.8636 140.545 65.0682C140.227 65.2689 139.979 65.5341 139.801 65.8636C139.627 66.1894 139.538 66.5473 139.534 66.9375V68.1477C139.534 68.6553 139.627 69.0909 139.812 69.4545C139.998 69.8144 140.258 70.0909 140.591 70.2841C140.924 70.4735 141.314 70.5682 141.761 70.5682C142.061 70.5682 142.331 70.5265 142.574 70.4432C142.816 70.3561 143.027 70.2292 143.205 70.0625C143.383 69.8958 143.517 69.6894 143.608 69.4432L145.528 69.6591C145.407 70.1667 145.176 70.6098 144.835 70.9886C144.498 71.3636 144.066 71.6553 143.54 71.8636C143.013 72.0682 142.411 72.1705 141.733 72.1705ZM154.899 63.2727L151.791 72H149.518L146.411 63.2727H148.604L150.609 69.7557H150.7L152.712 63.2727H154.899ZM159.889 72.1705C159.014 72.1705 158.259 71.9886 157.622 71.625C156.99 71.2576 156.503 70.7386 156.162 70.0682C155.821 69.3939 155.651 68.6004 155.651 67.6875C155.651 66.7898 155.821 66.0019 156.162 65.3239C156.507 64.642 156.988 64.1117 157.605 63.733C158.223 63.3504 158.948 63.1591 159.781 63.1591C160.319 63.1591 160.827 63.2462 161.304 63.4205C161.785 63.5909 162.209 63.8561 162.577 64.2159C162.948 64.5758 163.24 65.0341 163.452 65.5909C163.664 66.1439 163.77 66.803 163.77 67.5682V68.1989H156.616V66.8125H161.798C161.795 66.4186 161.709 66.0682 161.543 65.7614C161.376 65.4508 161.143 65.2064 160.844 65.0284C160.548 64.8504 160.204 64.7614 159.81 64.7614C159.389 64.7614 159.02 64.8636 158.702 65.0682C158.384 65.2689 158.135 65.5341 157.957 65.8636C157.783 66.1894 157.694 66.5473 157.69 66.9375V68.1477C157.69 68.6553 157.783 69.0909 157.969 69.4545C158.154 69.8144 158.414 70.0909 158.747 70.2841C159.08 70.4735 159.471 70.5682 159.918 70.5682C160.217 70.5682 160.488 70.5265 160.73 70.4432C160.973 70.3561 161.183 70.2292 161.361 70.0625C161.539 69.8958 161.673 69.6894 161.764 69.4432L163.685 69.6591C163.563 70.1667 163.332 70.6098 162.991 70.9886C162.654 71.3636 162.223 71.6553 161.696 71.8636C161.17 72.0682 160.567 72.1705 159.889 72.1705ZM165.51 72V63.2727H167.504V64.7273H167.595C167.754 64.2235 168.027 63.8352 168.413 63.5625C168.804 63.286 169.249 63.1477 169.749 63.1477C169.862 63.1477 169.989 63.1534 170.129 63.1648C170.273 63.1723 170.393 63.1856 170.487 63.2045V65.0966C170.4 65.0663 170.262 65.0398 170.072 65.017C169.887 64.9905 169.707 64.9773 169.533 64.9773C169.158 64.9773 168.821 65.0587 168.521 65.2216C168.226 65.3807 167.993 65.6023 167.822 65.8864C167.652 66.1705 167.567 66.4981 167.567 66.8693V72H165.51ZM173.398 75.2727C173.117 75.2727 172.858 75.25 172.619 75.2045C172.384 75.1629 172.197 75.1136 172.057 75.0568L172.534 73.4545C172.833 73.5417 173.1 73.5833 173.335 73.5795C173.57 73.5758 173.777 73.5019 173.955 73.358C174.136 73.2178 174.29 72.983 174.415 72.6534L174.591 72.1818L171.426 63.2727H173.608L175.619 69.8636H175.71L177.727 63.2727H179.915L176.42 73.0568C176.258 73.5189 176.042 73.9148 175.773 74.2443C175.504 74.5777 175.174 74.8314 174.784 75.0057C174.398 75.1837 173.936 75.2727 173.398 75.2727ZM188.545 72.1534C187.86 72.1534 187.246 71.9773 186.705 71.625C186.163 71.2727 185.735 70.7614 185.42 70.0909C185.106 69.4205 184.949 68.6061 184.949 67.6477C184.949 66.678 185.108 65.8598 185.426 65.1932C185.748 64.5227 186.182 64.017 186.727 63.6761C187.273 63.3314 187.881 63.1591 188.551 63.1591C189.063 63.1591 189.483 63.2462 189.812 63.4205C190.142 63.5909 190.403 63.7973 190.597 64.0398C190.79 64.2784 190.939 64.5038 191.045 64.7159H191.131V60.3636H193.193V72H191.17V70.625H191.045C190.939 70.8371 190.786 71.0625 190.585 71.3011C190.384 71.536 190.119 71.7367 189.79 71.9034C189.46 72.0701 189.045 72.1534 188.545 72.1534ZM189.119 70.4659C189.555 70.4659 189.926 70.3485 190.233 70.1136C190.54 69.875 190.773 69.5436 190.932 69.1193C191.091 68.6951 191.17 68.2008 191.17 67.6364C191.17 67.072 191.091 66.5814 190.932 66.1648C190.777 65.7481 190.545 65.4242 190.239 65.1932C189.936 64.9621 189.563 64.8466 189.119 64.8466C188.661 64.8466 188.278 64.9659 187.972 65.2045C187.665 65.4432 187.434 65.7727 187.278 66.1932C187.123 66.6136 187.045 67.0947 187.045 67.6364C187.045 68.1818 187.123 68.6686 187.278 69.0966C187.438 69.5208 187.67 69.8561 187.977 70.1023C188.288 70.3447 188.669 70.4659 189.119 70.4659ZM197.896 72.1761C197.343 72.1761 196.845 72.0777 196.402 71.8807C195.963 71.6799 195.614 71.3845 195.357 70.9943C195.103 70.6042 194.976 70.1231 194.976 69.5511C194.976 69.0587 195.067 68.6515 195.249 68.3295C195.43 68.0076 195.679 67.75 195.993 67.5568C196.307 67.3636 196.661 67.2178 197.055 67.1193C197.453 67.017 197.864 66.9432 198.288 66.8977C198.8 66.8447 199.214 66.7973 199.533 66.7557C199.851 66.7102 200.082 66.642 200.226 66.5511C200.374 66.4564 200.447 66.3106 200.447 66.1136V66.0795C200.447 65.6515 200.321 65.3201 200.067 65.0852C199.813 64.8504 199.447 64.733 198.97 64.733C198.466 64.733 198.067 64.8428 197.771 65.0625C197.48 65.2822 197.283 65.5417 197.18 65.8409L195.26 65.5682C195.411 65.0379 195.661 64.5947 196.01 64.2386C196.358 63.8788 196.785 63.6098 197.288 63.4318C197.792 63.25 198.349 63.1591 198.959 63.1591C199.379 63.1591 199.798 63.2083 200.214 63.3068C200.631 63.4053 201.012 63.5682 201.357 63.7955C201.701 64.0189 201.978 64.3239 202.186 64.7102C202.398 65.0966 202.504 65.5795 202.504 66.1591V72H200.527V70.8011H200.459C200.334 71.0436 200.158 71.2708 199.93 71.483C199.707 71.6913 199.425 71.8598 199.084 71.9886C198.747 72.1136 198.351 72.1761 197.896 72.1761ZM198.43 70.6648C198.843 70.6648 199.201 70.5833 199.504 70.4205C199.807 70.2538 200.04 70.0341 200.203 69.7614C200.37 69.4886 200.453 69.1913 200.453 68.8693V67.8409C200.389 67.8939 200.279 67.9432 200.124 67.9886C199.972 68.0341 199.802 68.0739 199.612 68.108C199.423 68.142 199.235 68.1723 199.05 68.1989C198.864 68.2254 198.703 68.2481 198.567 68.267C198.26 68.3087 197.985 68.3769 197.743 68.4716C197.5 68.5663 197.309 68.6989 197.169 68.8693C197.029 69.036 196.959 69.2519 196.959 69.517C196.959 69.8958 197.097 70.1818 197.374 70.375C197.65 70.5682 198.002 70.6648 198.43 70.6648ZM205.538 75.2727C205.258 75.2727 204.999 75.25 204.76 75.2045C204.525 75.1629 204.338 75.1136 204.197 75.0568L204.675 73.4545C204.974 73.5417 205.241 73.5833 205.476 73.5795C205.711 73.5758 205.917 73.5019 206.095 73.358C206.277 73.2178 206.43 72.983 206.555 72.6534L206.732 72.1818L203.567 63.2727H205.749L207.76 69.8636H207.851L209.868 63.2727H212.055L208.561 73.0568C208.398 73.5189 208.182 73.9148 207.913 74.2443C207.644 74.5777 207.315 74.8314 206.925 75.0057C206.538 75.1837 206.076 75.2727 205.538 75.2727ZM214.199 72.125C213.854 72.125 213.559 72.0038 213.312 71.7614C213.066 71.5189 212.945 71.2235 212.949 70.875C212.945 70.5341 213.066 70.2424 213.312 70C213.559 69.7576 213.854 69.6364 214.199 69.6364C214.532 69.6364 214.822 69.7576 215.068 70C215.318 70.2424 215.445 70.5341 215.449 70.875C215.445 71.1061 215.384 71.3163 215.267 71.5057C215.153 71.6951 215.002 71.8466 214.812 71.9602C214.627 72.0701 214.422 72.125 214.199 72.125ZM218.839 72.125C218.495 72.125 218.199 72.0038 217.953 71.7614C217.707 71.5189 217.586 71.2235 217.589 70.875C217.586 70.5341 217.707 70.2424 217.953 70C218.199 69.7576 218.495 69.6364 218.839 69.6364C219.173 69.6364 219.463 69.7576 219.709 70C219.959 70.2424 220.086 70.5341 220.089 70.875C220.086 71.1061 220.025 71.3163 219.908 71.5057C219.794 71.6951 219.643 71.8466 219.453 71.9602C219.268 72.0701 219.063 72.125 218.839 72.125ZM223.48 72.125C223.135 72.125 222.84 72.0038 222.594 71.7614C222.348 71.5189 222.226 71.2235 222.23 70.875C222.226 70.5341 222.348 70.2424 222.594 70C222.84 69.7576 223.135 69.6364 223.48 69.6364C223.813 69.6364 224.103 69.7576 224.349 70C224.599 70.2424 224.726 70.5341 224.73 70.875C224.726 71.1061 224.666 71.3163 224.548 71.5057C224.435 71.6951 224.283 71.8466 224.094 71.9602C223.908 72.0701 223.704 72.125 223.48 72.125Z" fill="#A1A1AA"/>
</svg>
